<svg width="36" height="32" viewBox="0 0 36 32" fill="none" xmlns="http://www.w3.org/2000/svg">
<path d="M34.4555 6.33285C32.8819 2.85368 29.6241 0.489631 25.9895 0.132793C23.0418 -0.134835 20.1386 0.623445 17.8115 2.29612C17.7894 2.31843 17.7672 2.34072 17.745 2.34072C17.7228 2.31843 17.7008 2.29612 17.6786 2.29612C15.3294 0.623445 12.4261 -0.134835 9.50067 0.155096C5.84384 0.489631 2.60813 2.85368 1.01244 6.33285C-0.694064 10.0573 -0.228654 14.3394 2.29786 18.3761C5.97681 24.2639 12.271 28.4568 16.9028 30.9324L17.6342 31.2892V31.3115H17.6564H17.6786L18.565 30.9547C23.197 28.4791 29.5133 24.2862 33.17 18.3984C35.6966 14.3394 36.162 10.0573 34.4555 6.33285ZM30.156 16.2574C27.1198 21.1416 21.8451 24.7769 17.7008 27.0963V27.0295C13.5563 24.7323 8.34819 21.097 5.33411 16.2574C3.53895 13.3804 3.18435 10.4588 4.29248 8.00552C5.31194 5.77529 7.48386 4.19182 9.81088 3.9688C11.739 3.79038 13.5563 4.21412 15.0634 5.08392C14.1769 6.35515 13.5563 7.7825 13.2461 9.32135C12.6477 12.1538 13.1131 14.9192 14.4428 16.6812C15.3072 17.8185 16.4818 18.443 17.7228 18.4653C17.7228 18.4653 17.7228 18.4653 17.745 18.4653C17.745 18.4653 17.745 18.4653 17.7672 18.4653C19.0083 18.4653 20.1829 17.8185 21.0473 16.6812C22.3992 14.9192 22.8424 12.1538 22.244 9.32135C22.0224 8.25086 21.6456 7.22494 21.1359 6.26595C19.9834 6.91271 19.0305 7.82711 18.3434 8.94223C18.4986 9.32135 18.6094 9.74509 18.698 10.1688C19.1191 12.1984 18.698 13.6703 18.2105 14.2948C18.1439 14.4063 17.9445 14.6293 17.745 14.6293C17.5456 14.6293 17.3683 14.384 17.2797 14.2948C16.7921 13.648 16.371 12.1761 16.7921 10.1688C17.6121 6.17673 21.3575 3.58966 25.657 3.9911C28.0062 4.21412 30.1782 5.79759 31.1755 8.02783C32.3058 10.4588 31.929 13.3804 30.156 16.2574Z" fill="#FF9C08"/>
</svg>
