<svg width="40" height="42" viewBox="0 0 40 42" fill="none" xmlns="http://www.w3.org/2000/svg">
<g clip-path="url(#clip0_1_31)">
<path fill-rule="evenodd" clip-rule="evenodd" d="M14.3928 9.11564C14.4073 9.11504 14.4218 9.11475 14.4363 9.11475H33.5638C33.5783 9.11475 33.5928 9.11504 33.6073 9.11564C34.4348 9.14962 35.2201 9.49016 35.8104 10.071C36.3855 10.6369 36.7355 11.3915 36.797 12.1945L39.8211 30.1005C39.8227 30.11 39.8242 30.1195 39.8255 30.129C39.8911 30.594 39.8593 31.0675 39.7321 31.5195C39.6048 31.9716 39.385 32.3922 39.0865 32.7547C38.788 33.1172 38.4173 33.4136 37.9981 33.6252C37.5789 33.8367 37.1202 33.9588 36.6513 33.9836C36.6326 33.9846 36.6139 33.9851 36.5952 33.9851H11.4049C11.3862 33.9851 11.3675 33.9846 11.3488 33.9836C10.8799 33.9588 10.4212 33.8367 10.002 33.6252C9.58278 33.4136 9.21214 33.1172 8.91363 32.7547C8.61512 32.3922 8.39526 31.9716 8.26803 31.5195C8.14079 31.0675 8.10896 30.594 8.17456 30.129C8.1759 30.1195 8.17737 30.11 8.17897 30.1005L11.2031 12.1945C11.2646 11.3915 11.6146 10.6369 12.1897 10.071C12.78 9.49016 13.5653 9.14962 14.3928 9.11564ZM14.4615 11.2378C14.1674 11.2544 13.8891 11.3774 13.6788 11.5843C13.4641 11.7956 13.3357 12.0791 13.3185 12.3798C13.3162 12.4187 13.3119 12.4574 13.3054 12.4959L10.2752 30.4377C10.2529 30.6072 10.2653 30.7796 10.3117 30.9443C10.3592 31.1129 10.4412 31.2698 10.5525 31.405C10.6639 31.5403 10.8021 31.6509 10.9585 31.7298C11.1078 31.8051 11.2705 31.85 11.4372 31.862H36.5629C36.7296 31.85 36.8923 31.8051 37.0416 31.7298C37.198 31.6509 37.3362 31.5403 37.4476 31.405C37.5589 31.2698 37.641 31.1129 37.6884 30.9443C37.7348 30.7796 37.7472 30.6072 37.7249 30.4377L34.6947 12.4959C34.6882 12.4574 34.6839 12.4187 34.6816 12.3798C34.6644 12.0791 34.536 11.7956 34.3213 11.5843C34.111 11.3774 33.8327 11.2544 33.5386 11.2378H14.4615Z" fill="#090909"/>
<path fill-rule="evenodd" clip-rule="evenodd" d="M24.0032 0.015625C25.5744 0.0202937 27.0951 0.571491 28.3043 1.57469C29.5136 2.57788 30.3362 3.97056 30.631 5.51389C30.741 6.08976 30.3633 6.64575 29.7874 6.75574C29.2116 6.86573 28.6556 6.48807 28.5456 5.91221C28.3433 4.85301 27.7788 3.89719 26.9488 3.20869C26.1197 2.52086 25.0773 2.14264 24.0001 2.1387C22.9268 2.14266 21.888 2.51805 21.0601 3.20115C20.2313 3.88493 19.6652 4.83476 19.458 5.88898C19.3449 6.46425 18.7869 6.83892 18.2116 6.72584C17.6363 6.61277 17.2617 6.05476 17.3747 5.47949C17.6767 3.94358 18.5015 2.55975 19.7089 1.56355C20.9163 0.567343 22.4316 0.0203345 23.9969 0.0156251L24 1.07716L24.0032 0.015625Z" fill="#090909"/>
</g>
<rect y="20" width="22" height="22" fill="#FF9C08"/>
<path d="M11.5038 34.144C10.7598 34.144 10.1158 33.964 9.57184 33.604C9.03584 33.236 8.62384 32.728 8.33584 32.08C8.04784 31.424 7.90384 30.664 7.90384 29.8C7.90384 28.936 8.04784 28.18 8.33584 27.532C8.62384 26.876 9.03584 26.368 9.57184 26.008C10.1158 25.64 10.7598 25.456 11.5038 25.456C12.2478 25.456 12.8878 25.64 13.4238 26.008C13.9598 26.368 14.3718 26.876 14.6598 27.532C14.9478 28.18 15.0918 28.936 15.0918 29.8C15.0918 30.664 14.9478 31.424 14.6598 32.08C14.3718 32.728 13.9598 33.236 13.4238 33.604C12.8878 33.964 12.2478 34.144 11.5038 34.144ZM11.5038 33.256C11.9918 33.256 12.4278 33.12 12.8118 32.848C13.2038 32.568 13.5078 32.172 13.7238 31.66C13.9478 31.14 14.0598 30.52 14.0598 29.8C14.0598 29.08 13.9478 28.464 13.7238 27.952C13.5078 27.44 13.2038 27.048 12.8118 26.776C12.4278 26.496 11.9918 26.356 11.5038 26.356C11.0078 26.356 10.5678 26.496 10.1838 26.776C9.79984 27.048 9.49584 27.44 9.27184 27.952C9.04784 28.464 8.93584 29.08 8.93584 29.8C8.93584 30.52 9.04784 31.14 9.27184 31.66C9.49584 32.172 9.79984 32.568 10.1838 32.848C10.5678 33.12 11.0078 33.256 11.5038 33.256Z" fill="white"/>
<defs>
<clipPath id="clip0_1_31">
<rect width="32" height="34" fill="white" transform="translate(8)"/>
</clipPath>
</defs>
</svg>
